<svg width="376" height="532" viewBox="0 0 376 532" fill="none" xmlns="http://www.w3.org/2000/svg">
<g clip-path="url(#clip0_13_239)">
<path d="M286.56 178.08C310.08 178.08 332.482 168.56 349.279 151.76C366.08 134.959 375.599 112.561 375.599 89.041C375.599 65.521 366.079 43.119 349.279 26.322C332.478 9.52095 310.08 0.00195312 286.56 0.00195312C263.04 0.00195312 240.638 9.52145 223.841 26.322C207.04 43.123 197.521 65.521 197.521 89.041C197.521 112.561 207.041 134.963 223.841 151.76C240.079 168.561 262.482 178.08 286.56 178.08V178.08ZM327.443 129.924C309.521 147.846 280.404 150.643 258.564 138.885L336.962 60.4869C342.001 68.8853 344.802 78.4089 344.802 88.4869C344.239 104.163 338.079 118.721 327.443 129.925L327.443 129.924ZM245.681 48.162C256.88 36.963 270.88 31.361 286.56 31.361C296.638 31.361 306.162 34.1618 314.56 39.2008L236.162 117.599C231.123 109.2 228.322 99.6768 228.322 89.5988C228.322 73.3608 234.482 58.8018 245.681 48.1608L245.681 48.162Z" fill="#D7B667"/>
<path d="M358.8 234.64C357.679 228.48 352.081 223.999 345.921 223.999H226.641C220.481 223.999 214.879 228.479 213.762 234.64L199.762 315.281C195.84 338.242 200.321 361.203 212.641 379.679C227.2 401.519 250.719 415.519 276.481 418.32V506.8C276.481 510.159 273.68 512.96 270.321 513.519L232.801 517.999C229.441 518.558 226.641 521.359 226.641 524.718C226.641 528.64 229.441 531.437 233.359 531.437L339.199 531.441C343.121 531.441 345.918 528.64 345.918 524.722C345.918 521.362 343.117 518.562 339.758 518.003L302.797 513.523C299.438 512.964 296.637 510.163 296.637 506.804L296.641 417.761C322.403 414.96 345.36 401.523 359.922 379.12C372.242 360.64 376.723 337.679 372.801 314.722L358.8 234.64ZM313.999 293.999C273.679 290.64 263.038 321.44 220.479 308.558L231.678 243.597H340.318L351.517 307.437C342.556 300.718 330.236 295.121 313.997 293.999H313.999Z" fill="#D7B667"/>
<path d="M111.28 15.121C111.28 9.51937 106.8 5.04297 101.202 5.04297H60.3231C54.7215 5.04297 50.2451 9.52347 50.2451 15.121V50.402H110.725L110.717 15.121H111.28Z" fill="#D7B667"/>
<path d="M111.28 104.72V71.6809H50.8001V104.72C50.8001 126.56 41.8392 147.279 25.6011 161.841C9.3631 176.4 0.4021 197.122 0.4021 218.962V514.642C0.4021 524.161 8.24191 532.001 17.7611 532.001H144.881C154.401 532.001 162.24 524.161 162.24 514.642L162.236 218.962C162.236 197.122 153.275 176.403 137.037 161.841C120.799 147.282 111.279 126.56 111.279 104.72H111.28ZM130.319 445.76C130.319 451.92 125.28 457.522 118.557 457.522L43.5181 457.518C37.3579 457.518 31.7561 452.479 31.7561 445.756L31.76 288.396C31.76 281.677 36.7991 276.634 43.522 276.634H118.561C124.721 276.634 130.323 281.673 130.323 288.396L130.319 445.76Z" fill="#D7B667"/>
</g>
<defs>
<clipPath id="clip0_13_239">
<rect width="375.197" height="531.999" fill="white" transform="translate(0.4021 0.00195312)"/>
</clipPath>
</defs>
</svg>
