<?xml version="1.0" encoding="UTF-8"?> <svg xmlns="http://www.w3.org/2000/svg" width="18" height="20" viewBox="0 0 18 20" fill="none"> <path d="M5.37061 0C5.90104 0 6.40975 0.210714 6.78482 0.585786C7.15989 0.960859 7.37061 1.46957 7.37061 2C7.37061 2.53043 7.15989 3.03914 6.78482 3.41421C6.40975 3.78929 5.90104 4 5.37061 4C4.84017 4 4.33146 3.78929 3.95639 3.41421C3.58132 3.03914 3.37061 2.53043 3.37061 2C3.37061 1.46957 3.58132 0.960859 3.95639 0.585786C4.33146 0.210714 4.84017 0 5.37061 0V0ZM3.87061 20V14H0.870605L3.47061 6.4C3.77061 5.6 4.47061 5 5.37061 5C6.27061 5 7.07061 5.6 7.27061 6.4L9.87061 14H6.87061V20H3.87061ZM12.3706 10C12.3706 9.46957 12.5813 8.96086 12.9564 8.58579C13.3315 8.21071 13.8402 8 14.3706 8C14.901 8 15.4097 8.21071 15.7848 8.58579C16.1599 8.96086 16.3706 9.46957 16.3706 10C16.3706 10.5304 16.1599 11.0391 15.7848 11.4142C15.4097 11.7893 14.901 12 14.3706 12C13.8402 12 13.3315 11.7893 12.9564 11.4142C12.5813 11.0391 12.3706 10.5304 12.3706 10ZM12.8706 13H15.8706L17.3706 17H15.8706V20H12.8706V17H11.3706L12.8706 13Z" fill="#D7B667"></path> </svg> 