<svg width="26" height="26" viewBox="0 0 26 26" fill="none" xmlns="http://www.w3.org/2000/svg">
<path d="M12.9999 2.45569C10.2033 2.45569 7.52133 3.56663 5.54347 5.54408C3.56602 7.52153 2.45508 10.2037 2.45508 13C2.45508 15.7966 3.56602 18.4786 5.54347 20.4565C7.52092 22.4339 10.2031 23.5449 12.9999 23.5449C15.7963 23.5449 18.4785 22.4339 20.4559 20.4565C22.4333 18.479 23.5443 15.7969 23.5443 13C23.541 10.2044 22.4291 7.52452 20.4524 5.54769C18.4756 3.57106 15.7955 2.45909 13.0001 2.45584L12.9999 2.45569ZM12.9999 21.378C12.5548 21.378 12.1282 21.2013 11.8134 20.8865C11.4988 20.5719 11.3219 20.1451 11.3219 19.7002C11.3219 19.2552 11.4989 18.8285 11.8134 18.5137C12.1282 18.1991 12.5548 18.0224 12.9999 18.0224C13.4449 18.0224 13.8717 18.1991 14.1862 18.5137C14.501 18.8284 14.6777 19.2552 14.6777 19.7002C14.6777 20.1451 14.501 20.5719 14.1862 20.8865C13.8717 21.2013 13.4449 21.378 12.9999 21.378ZM14.6777 15.0291C14.6769 15.628 14.3569 16.1812 13.8382 16.4802C13.3193 16.7795 12.6803 16.7795 12.1616 16.4802C11.6427 16.1812 11.3227 15.628 11.3219 15.0291V6.29999C11.3227 5.70111 11.6428 5.14794 12.1616 4.84868C12.6803 4.54943 13.3193 4.54943 13.8382 4.84868C14.3569 5.14793 14.6769 5.70106 14.6777 6.29999V15.0291Z" fill="#E1C371"/>
<path d="M13 5.15592e-05C9.5521 5.15592e-05 6.24565 1.36975 3.80762 3.80767C1.3697 6.2456 0 9.55246 0 13.0001C0 16.4476 1.3697 19.7544 3.80762 22.1924C6.24554 24.6304 9.55241 26 13 26C16.4476 26 19.7544 24.6304 22.1924 22.1924C24.6303 19.7545 26 16.4476 26 13.0001C26 10.7181 25.3993 8.47629 24.2583 6.50003C23.1173 4.52376 21.4762 2.88266 19.5 1.7417C17.5237 0.600736 15.2819 0 12.9999 0L13 5.15592e-05ZM13 24.7001C9.89691 24.7001 6.92093 23.4675 4.7264 21.2734C2.53233 19.0791 1.29964 16.1033 1.29964 12.9998C1.29964 9.89691 2.53233 6.92072 4.7264 4.72671C6.92067 2.53264 9.89649 1.29995 13 1.29995C16.1029 1.29995 19.0791 2.53264 21.2731 4.72671C23.4672 6.92098 24.6998 9.8968 24.6998 12.9998C24.6964 16.1019 23.4626 19.0758 21.2693 21.2693C19.0758 23.4628 16.1017 24.6966 12.9998 24.7L13 24.7001Z" fill="#E1C371"/>
</svg>
