<svg width="40" height="25" viewBox="0 0 40 25" fill="none">
<path d="M12.5 11.875C12.1549 11.875 11.875 11.5951 11.875 11.25V9.37494C11.875 9.20921 11.8092 9.05016 11.692 8.93298C11.5748 8.81579 11.4158 8.74994 11.25 8.74994H6.25001C5.90486 8.74994 5.62501 9.0298 5.62501 9.37494V11.25C5.62501 11.5951 5.34515 11.875 5 11.875C4.65486 11.875 4.375 11.5951 4.375 11.25V9.37494C4.375 8.87773 4.57254 8.40058 4.92411 8.04908C5.27568 7.69758 5.75283 7.49997 6.24997 7.49997H11.25C11.7472 7.49997 12.2244 7.69751 12.5759 8.04908C12.9274 8.40064 13.125 8.8778 13.125 9.37494V11.25C13.125 11.4157 13.0591 11.5747 12.9419 11.6919C12.8247 11.8091 12.6657 11.875 12.5 11.875H12.5Z" fill="#786635"/>
<path d="M22.5 11.875C22.1549 11.875 21.875 11.5951 21.875 11.25V9.37494C21.875 9.20921 21.8092 9.05016 21.692 8.93298C21.5748 8.81579 21.4158 8.74994 21.25 8.74994H16.25C15.9049 8.74994 15.625 9.0298 15.625 9.37494V11.25C15.625 11.5951 15.3451 11.875 15 11.875C14.6549 11.875 14.375 11.5951 14.375 11.25V9.37494C14.375 8.87773 14.5725 8.40058 14.9241 8.04908C15.2757 7.69758 15.7528 7.49997 16.25 7.49997H21.25C21.7472 7.49997 22.2244 7.69751 22.5759 8.04908C22.9274 8.40064 23.125 8.8778 23.125 9.37494V11.25C23.125 11.4157 23.0591 11.5747 22.9419 11.6919C22.8247 11.8091 22.6657 11.875 22.5 11.875H22.5Z" fill="#786635"/>
<path d="M38.125 25H30.625C30.1278 25 29.6506 24.8025 29.2991 24.4509C28.9476 24.0993 28.75 23.6222 28.75 23.125V14.375C28.75 13.8778 28.9475 13.4006 29.2991 13.0491C29.6507 12.6976 30.1278 12.5 30.625 12.5H38.125C38.6222 12.5 39.0994 12.6976 39.4509 13.0491C39.8024 13.4007 40 13.8779 40 14.375V23.125C40 23.6222 39.8024 24.0994 39.4509 24.4509C39.0993 24.8024 38.6222 25 38.125 25ZM30.625 13.75C30.2798 13.75 30 14.0298 30 14.375V23.125C30 23.2907 30.0658 23.4498 30.183 23.567C30.3002 23.6842 30.4592 23.75 30.625 23.75H38.125C38.2907 23.75 38.4498 23.6842 38.567 23.567C38.6842 23.4498 38.75 23.2907 38.75 23.125V14.375C38.75 14.2092 38.6842 14.0502 38.567 13.933C38.4498 13.8158 38.2907 13.75 38.125 13.75H30.625Z" fill="#786635"/>
<path d="M24.3751 12.4999H3.12501C2.91519 12.4997 2.70565 12.5206 2.50001 12.5624V4.99955C2.50001 4.66808 2.63171 4.34999 2.86608 4.11562C3.10046 3.88125 3.41854 3.74955 3.75002 3.74955H23.7501C24.0816 3.74955 24.3997 3.88125 24.634 4.11562C24.8684 4.34999 25.0001 4.66808 25.0001 4.99955V10.6246C25.0001 10.9697 25.28 11.2496 25.6251 11.2496C25.9703 11.2496 26.2501 10.9697 26.2501 10.6246V4.99955C26.2501 4.33661 25.9867 3.70069 25.518 3.23169C25.0489 2.76294 24.413 2.49954 23.7501 2.49954H3.75002C3.08707 2.49954 2.45115 2.76294 1.98215 3.23169C1.5134 3.70072 1.25001 4.33662 1.25001 4.99955V13.1246V13.1383C0.465431 13.7242 0.0022143 14.6453 0 15.6246V23.1247C0 23.6219 0.197544 24.099 0.54911 24.4505C0.900675 24.802 1.37783 24.9996 1.87497 24.9996H25.6251C26.1223 24.9996 26.5994 24.8021 26.9509 24.4505C27.3024 24.099 27.5 23.6218 27.5 23.1247V15.6246C27.4989 14.7962 27.1694 14.0018 26.5838 13.4159C25.9978 12.8302 25.2035 12.5008 24.375 12.4996L24.3751 12.4999ZM26.2501 23.125C26.2501 23.2907 26.1843 23.4498 26.0671 23.567C25.9499 23.6841 25.7908 23.75 25.6251 23.75H1.87501C1.52986 23.75 1.25001 23.4701 1.25001 23.125V21.25H25.0001C25.3453 21.25 25.6251 20.9701 25.6251 20.625C25.6251 20.2798 25.3453 20 25.0001 20H1.25001V15.625C1.25001 15.1277 1.44755 14.6506 1.79912 14.2991C2.15068 13.9476 2.62783 13.75 3.12498 13.75H24.3751C24.8723 13.75 25.3494 13.9475 25.7009 14.2991C26.0524 14.6507 26.25 15.1278 26.25 15.625L26.2501 23.125Z" fill="#786635"/>
<path d="M37.5 19.375H31.25C30.9049 19.375 30.625 19.0951 30.625 18.75C30.625 18.4048 30.9049 18.125 31.25 18.125H37.5C37.8452 18.125 38.125 18.4048 38.125 18.75C38.125 19.0951 37.8452 19.375 37.5 19.375Z" fill="#786635"/>
<path d="M39.3058 5.94063L37.4681 0.427459H37.4684C37.3833 0.172158 37.1444 0 36.8752 0H31.8752C31.6059 0 31.3671 0.172158 31.282 0.427459L29.407 6.05248C29.3436 6.24306 29.3754 6.4526 29.4932 6.61554C29.6106 6.77849 29.7993 6.87503 30.0002 6.87503H31.2502V9.37504C31.2502 9.72019 31.53 10 31.8752 10C32.2203 10 32.5002 9.72019 32.5002 9.37504V6.87503H33.7502V11.25C33.7502 11.5952 34.03 11.8751 34.3752 11.8751C34.7203 11.8751 35.0002 11.5952 35.0002 11.25V6.87503H38.7502C38.7544 6.87447 38.7586 6.87447 38.7628 6.87503C38.9863 6.87559 39.1933 6.75673 39.3055 6.56336C39.4173 6.36973 39.4176 6.13116 39.3057 5.93753L39.3058 5.94063ZM30.8686 5.62812L32.3273 1.25311H36.4261L37.8848 5.62812H30.8686Z" fill="#786635"/>
<path d="M35 15.625C35 15.9701 34.7201 16.25 34.375 16.25C34.0299 16.25 33.75 15.9701 33.75 15.625C33.75 15.2798 34.0299 15 34.375 15C34.7201 15 35 15.2798 35 15.625Z" fill="#786635"/>
<path d="M35 21.25C35 21.5951 34.7201 21.875 34.375 21.875C34.0299 21.875 33.75 21.5951 33.75 21.25C33.75 20.9049 34.0299 20.625 34.375 20.625C34.7201 20.625 35 20.9049 35 21.25Z" fill="#786635"/>
</svg>
