<svg width="34" height="40" viewBox="0 0 34 40" fill="none" xmlns="http://www.w3.org/2000/svg">
<path d="M7.09812 23.3596C5.47706 23.3596 4.1582 24.679 4.1582 26.3007C4.1582 27.9224 5.47706 29.2417 7.09812 29.2417C8.71918 29.2417 10.038 27.9224 10.038 26.3007C10.038 24.679 8.71918 23.3596 7.09812 23.3596Z" fill="url(#paint0_linear_742_524)"/>
<path d="M21.3774 23.3596C19.7564 23.3596 18.4375 24.679 18.4375 26.3007C18.4375 27.9224 19.7564 29.2417 21.3774 29.2417C22.9985 29.2417 24.3173 27.9224 24.3173 26.3007C24.3171 24.679 22.9982 23.3596 21.3774 23.3596Z" fill="url(#paint1_linear_742_524)"/>
<path d="M11.7188 25.2924H16.7583V27.309H11.7188V25.2924Z" fill="url(#paint2_linear_742_524)"/>
<path d="M21.4626 17.1412V18.5276C21.4626 18.8982 21.1612 19.1999 20.7906 19.1999H15.247V11.4713C16.5099 11.4716 17.4326 11.4719 17.4738 11.4719C17.4713 10.9692 17.4867 9.95786 17.5045 9.4555C17.4864 9.45495 17.4757 9.45468 7.6879 9.45276C6.20571 9.45276 5 10.659 5 12.1415V18.5276C5 20.0103 6.20571 21.2163 7.6879 21.2163H20.7908C22.2729 21.2163 23.4787 20.01 23.4787 18.5276L23.4784 17.1414L21.4626 17.1412ZM7.01533 18.5278V12.1418C7.01533 11.7712 7.31676 11.4695 7.6871 11.4695C7.73981 11.4695 10.6119 11.47 13.2309 11.4706V19.1999H7.68738C7.31677 19.1999 7.01533 18.8984 7.01533 18.5278L7.01533 18.5278Z" fill="url(#paint3_linear_742_524)"/>
<path d="M26.543 19.7528H28.5589V21.7695H26.543V19.7528Z" fill="url(#paint4_linear_742_524)"/>
<path d="M26.0173 18.0008C26.3668 18.2394 26.8282 18.2347 27.1725 17.9879C27.4504 17.7889 33.9745 13.0508 33.9745 7.49381C33.9745 3.36189 30.6602 0.000643865 26.5861 0.000643865C23.5786 0.000643865 20.9854 1.83282 19.8335 4.45403H17.1239L18.289 1.36476C18.5481 0.732251 18.029 -0.0188938 17.346 0.000362748H10.9624C10.2793 -0.0188544 9.76024 0.732251 10.0194 1.36476L11.185 4.45403H7.7279C3.46666 4.45403 0 7.92188 0 12.184V29.0735C0 31.4779 1.95165 33.4347 4.35316 33.4427L1.52225 38.3479L3.26798 39.3563L4.25604 37.6444H24.2203L25.2083 39.3563L26.954 38.3479L24.1234 33.4429H24.1904C26.5989 33.4429 28.5581 31.4828 28.5581 29.0735V23.5618L26.5419 23.5621V29.0738C26.5419 30.3712 25.4869 31.4265 24.19 31.4265L4.36779 31.4263C3.07093 31.4263 2.0159 30.371 2.0159 29.0735L2.01617 12.184C2.01617 9.03356 4.57834 6.47027 7.72776 6.47027H19.2669C19.2216 6.80492 19.1977 7.14643 19.1977 7.49367C19.1975 13.2755 25.7392 17.8107 26.0176 18.0011L26.0173 18.0008ZM6.68067 33.4426H21.7956L23.0565 35.6273H5.41923L6.68067 33.4426ZM26.5859 2.0165C29.5485 2.0165 31.9586 4.47354 31.9586 7.49336C31.9586 11.1627 28.0685 14.6829 26.574 15.9002C25.0779 14.7235 21.2134 11.3136 21.2134 7.49336C21.2131 4.47354 23.6232 2.0165 26.5859 2.0165Z" fill="url(#paint5_linear_742_524)"/>
<path d="M26.5854 3.75952C24.6376 3.75952 23.0527 5.35563 23.0527 7.31741C23.0527 9.27918 24.6373 10.8753 26.5854 10.8753C28.5332 10.8753 30.118 9.27918 30.118 7.31741C30.118 5.35563 28.5332 3.75952 26.5854 3.75952Z" fill="url(#paint6_linear_742_524)"/>
<defs>
<linearGradient id="paint0_linear_742_524" x1="4.97137" y1="24.1731" x2="10.04" y2="29.2398" gradientUnits="userSpaceOnUse">
<stop stop-color="#BB8031"/>
<stop offset="0.453125" stop-color="#F0DA83"/>
<stop offset="1" stop-color="#CBA258"/>
</linearGradient>
<linearGradient id="paint1_linear_742_524" x1="19.2507" y1="24.1731" x2="24.3193" y2="29.2398" gradientUnits="userSpaceOnUse">
<stop stop-color="#BB8031"/>
<stop offset="0.453125" stop-color="#F0DA83"/>
<stop offset="1" stop-color="#CBA258"/>
</linearGradient>
<linearGradient id="paint2_linear_742_524" x1="12.4157" y1="25.5713" x2="13.6145" y2="28.567" gradientUnits="userSpaceOnUse">
<stop stop-color="#BB8031"/>
<stop offset="0.453125" stop-color="#F0DA83"/>
<stop offset="1" stop-color="#CBA258"/>
</linearGradient>
<linearGradient id="paint3_linear_742_524" x1="7.55556" y1="11.0796" x2="16.7396" y2="25.5064" gradientUnits="userSpaceOnUse">
<stop stop-color="#BB8031"/>
<stop offset="0.453125" stop-color="#F0DA83"/>
<stop offset="1" stop-color="#CBA258"/>
</linearGradient>
<linearGradient id="paint4_linear_742_524" x1="26.8218" y1="20.0317" x2="28.5595" y2="21.7688" gradientUnits="userSpaceOnUse">
<stop stop-color="#BB8031"/>
<stop offset="0.453125" stop-color="#F0DA83"/>
<stop offset="1" stop-color="#CBA258"/>
</linearGradient>
<linearGradient id="paint5_linear_742_524" x1="4.6986" y1="5.44289" x2="38.2486" y2="34.4051" gradientUnits="userSpaceOnUse">
<stop stop-color="#BB8031"/>
<stop offset="0.453125" stop-color="#F0DA83"/>
<stop offset="1" stop-color="#CBA258"/>
</linearGradient>
<linearGradient id="paint6_linear_742_524" x1="24.0299" y1="4.74362" x2="30.1614" y2="10.8317" gradientUnits="userSpaceOnUse">
<stop stop-color="#BB8031"/>
<stop offset="0.453125" stop-color="#F0DA83"/>
<stop offset="1" stop-color="#CBA258"/>
</linearGradient>
</defs>
</svg>
