<svg width="36" height="37" viewBox="0 0 36 37" fill="none" xmlns="http://www.w3.org/2000/svg">
<path fill-rule="evenodd" clip-rule="evenodd" d="M6.14179 2.04971H7.38026C7.38026 -0.647428 28.3799 -0.647428 28.3799 2.04971H29.6183C30.0804 2.04971 30.4578 2.47359 30.4578 2.99262V6.1614H33.581C34.2757 6.1614 34.841 6.79635 34.841 7.57667V8.28187H34.9214C35.3835 8.28187 35.7608 8.70575 35.7608 9.2255V12.5291C35.7608 13.0485 35.3835 13.4728 34.9214 13.4728H34.841V14.106C34.841 14.8853 34.2757 15.5212 33.581 15.5212H30.4578V33.2918C30.4578 33.8108 30.0804 34.2354 29.6183 34.2354H27.4497V35.1134C27.4497 36.1515 26.694 36.9999 25.7698 36.9999H24.426C23.5021 36.9999 22.747 36.1515 22.747 35.1134V34.2354H13.0132V35.1134C13.0132 36.1515 12.2575 36.9999 11.3336 36.9999H9.99041C9.06553 36.9999 8.3105 36.1515 8.3105 35.1134V34.2354H6.14251C5.6804 34.2354 5.30304 33.8108 5.30304 33.2918V15.5212H2.17983C1.4851 15.5212 0.919824 14.8852 0.919824 14.106V13.4728H0.839471C0.377362 13.4728 0 13.0489 0 12.5291V9.2255C0 8.7061 0.377378 8.28187 0.839471 8.28187H0.919824V7.57667C0.919824 6.79633 1.48511 6.1614 2.17983 6.1614H5.30304V2.99262C5.30304 2.47357 5.68041 2.04971 6.14251 2.04971H6.14179ZM9.49727 20.3363H14.2319C15.1558 20.3363 15.9109 21.1851 15.9109 22.2228V28.4003C15.9109 29.4391 15.1555 30.2872 14.2319 30.2872H9.49727C8.57336 30.2872 7.81825 29.4387 7.81825 28.4003V22.2228C7.81825 21.1851 8.57364 20.3363 9.49727 20.3363ZM21.5283 20.3363H26.2629C27.1868 20.3363 27.9419 21.1851 27.9419 22.2228V28.4003C27.9419 29.4391 27.1865 30.2872 26.2629 30.2872H21.5283C20.6043 30.2872 19.8492 29.4387 19.8492 28.4003V22.2228C19.8492 21.1851 20.6046 20.3363 21.5283 20.3363ZM5.30232 14.5768V7.10593H2.17911C1.94868 7.10593 1.75921 7.31805 1.75921 7.57653V8.28172H2.65967C3.12178 8.28172 3.49914 8.7056 3.49914 9.22536V12.529C3.49914 13.0484 3.12176 13.4726 2.65967 13.4726H1.75921V14.1058C1.75921 14.3636 1.94868 14.5764 2.17911 14.5764H5.30232V14.5768ZM30.4576 7.10593V14.5768H33.5809C33.8113 14.5768 34.0008 14.364 34.0008 14.1062V13.473H33.1003C32.6382 13.473 32.2608 13.0491 32.2608 12.5294V9.22576C32.2608 8.70635 32.6382 8.28212 33.1003 8.28212H34.0008V7.57693C34.0008 7.3181 33.8113 7.10633 33.5809 7.10633H30.4576V7.10593ZM7.45302 5.36583H28.3069C28.7691 5.36583 29.1464 5.78971 29.1464 6.30947V15.4779C29.1464 15.998 28.769 16.4219 28.3069 16.4219H7.45302C6.99091 16.4219 6.61355 15.998 6.61355 15.4779V6.30947C6.61355 5.79006 6.99093 5.36583 7.45302 5.36583Z" fill="url(#paint0_linear_742_507)"/>
<defs>
<linearGradient id="paint0_linear_742_507" x1="4.94565" y1="5.14015" x2="36.7877" y2="35.9382" gradientUnits="userSpaceOnUse">
<stop stop-color="#BB8031"/>
<stop offset="0.453125" stop-color="#F0DA83"/>
<stop offset="1" stop-color="#CBA258"/>
</linearGradient>
</defs>
</svg>
