<?xml version="1.0" encoding="UTF-8"?> <svg xmlns="http://www.w3.org/2000/svg" width="79" height="68" viewBox="0 0 79 68" fill="none"> <path d="M32.2064 60.9376L32.1961 60.9477L32.186 60.958C31.796 61.3536 31.5229 61.6233 31.2554 61.8227L32.3715 45.7891L65.4981 15.4092C65.4995 15.408 65.5008 15.4068 65.5021 15.4056C65.9664 14.9848 66.4972 14.3372 66.5276 13.4932C66.5662 12.4234 65.8196 11.7723 65.148 11.5296C64.5321 11.307 63.8572 11.3396 63.27 11.4752C62.66 11.616 62.0204 11.895 61.4003 12.3115L20.5008 38.4495L3.30111 32.9855L3.29968 32.9851C2.45682 32.7182 1.9557 32.4101 1.69885 32.1649C1.57641 32.048 1.52916 31.9644 1.51235 31.9259C1.49852 31.8942 1.49957 31.8821 1.50034 31.8731L1.50036 31.873C1.50226 31.851 1.53644 31.6221 1.97229 31.2322C2.401 30.8486 3.11793 30.4053 4.20748 29.9731C4.20854 29.9726 4.20961 29.9722 4.21067 29.9718L74.0862 2.64848C74.0882 2.6477 74.0903 2.64692 74.0923 2.64614C75.3499 2.16991 76.1835 2.42081 76.6174 2.8472C77.0647 3.28685 77.5372 4.34523 77.1464 6.44265L77.0947 6.69012L65.2058 63.5885C64.7972 65.4122 64.1549 66.0973 63.6722 66.3206C63.2133 66.5329 62.3708 66.5681 60.9332 65.7679L42.8953 52.2762L41.8675 51.5075L40.9491 52.404L32.2064 60.9376Z" stroke="#039BE5" stroke-width="3"></path> <path d="M32.2064 60.9376L32.1961 60.9477L32.186 60.958C31.796 61.3536 31.5229 61.6233 31.2554 61.8227L32.3715 45.7891L65.4981 15.4092C65.4995 15.408 65.5008 15.4068 65.5021 15.4056C65.9664 14.9848 66.4972 14.3372 66.5276 13.4932C66.5662 12.4234 65.8196 11.7723 65.148 11.5296C64.5321 11.307 63.8572 11.3396 63.27 11.4752C62.66 11.616 62.0204 11.895 61.4003 12.3115L20.5008 38.4495L3.30111 32.9855L3.29968 32.9851C2.45682 32.7182 1.9557 32.4101 1.69885 32.1649C1.57641 32.048 1.52916 31.9644 1.51235 31.9259C1.49852 31.8942 1.49957 31.8821 1.50034 31.8731L1.50036 31.873C1.50226 31.851 1.53644 31.6221 1.97229 31.2322C2.401 30.8486 3.11793 30.4053 4.20748 29.9731C4.20854 29.9726 4.20961 29.9722 4.21067 29.9718L74.0862 2.64848C74.0882 2.6477 74.0903 2.64692 74.0923 2.64614C75.3499 2.16991 76.1835 2.42081 76.6174 2.8472C77.0647 3.28685 77.5372 4.34523 77.1464 6.44265L77.0947 6.69012L65.2058 63.5885C64.7972 65.4122 64.1549 66.0973 63.6722 66.3206C63.2133 66.5329 62.3708 66.5681 60.9332 65.7679L42.8953 52.2762L41.8675 51.5075L40.9491 52.404L32.2064 60.9376Z" stroke="url(#paint0_linear_112_7)" stroke-width="3"></path> <defs> <linearGradient id="paint0_linear_112_7" x1="48.8451" y1="13.5961" x2="48.8096" y2="60.5395" gradientUnits="userSpaceOnUse"> <stop stop-color="#B57628"></stop> <stop offset="0.422773" stop-color="#F4E089"></stop> <stop offset="0.9999" stop-color="#A16427"></stop> </linearGradient> </defs> </svg> 